<?xml version="1.0" encoding="UTF-8"?>
<svg width="147px" height="25px" viewBox="0 0 147 25" version="1.1" xmlns="http://www.w3.org/2000/svg" xmlns:xlink="http://www.w3.org/1999/xlink">
    <!-- Generator: Sketch 53.2 (72643) - https://sketchapp.com -->
    <title>Logo</title>
    <desc>Created with Sketch.</desc>
    <defs>
        <polygon id="path-1" points="0 24.9173838 0 0.174905689 16.9319032 0.174905689 16.9319032 24.9173838"></polygon>
    </defs>
    <g id="Page-1" stroke="none" stroke-width="1" fill="none" fill-rule="evenodd">
        <g id="Fleet-Report---Utilisation" transform="translate(-27.000000, -17.000000)">
            <g id="Logo" transform="translate(26.000000, 17.000000)">
                <g id="Group" transform="translate(1.793939, 0.000000)">
                    <g id="Group-11" transform="translate(0.000000, 0.067011)">
                        <mask id="mask-2" fill="white">
                            <use xlink:href="#path-1"></use>
                        </mask>
                        <g id="Clip-10"></g>
                        <path d="M8.46591484,0.174881497 C4.4819059,0.174881497 -7.35192644e-05,3.41704753 -7.35192644e-05,9.58882337 C-7.35192644e-05,12.6737436 6.47452303,21.8341569 8.46591484,24.9173838 C10.4575517,21.8341569 16.9319032,12.6737436 16.9319032,9.58882337 C16.9319032,3.41704753 12.4499238,0.174881497 8.46591484,0.174881497" id="Fill-9" fill="#EE5555" mask="url(#mask-2)"></path>
                    </g>
                    <path d="M8.46591484,14.0734246 C5.37565509,14.0734246 2.86791299,11.601279 2.86791299,8.54998519 C2.86791299,5.4982075 5.37565509,3.02194937 8.46591484,3.02194937 C11.5583802,3.02194937 14.0641618,5.4982075 14.0641618,8.54998519 C14.0641618,11.601279 11.5583802,14.0734246 8.46591484,14.0734246" id="Fill-12" fill="#B5312F"></path>
                    <path d="M8.46591484,11.4362194 C6.8506966,11.4362194 5.54058331,10.1434171 5.54058331,8.54991261 C5.54058331,6.95181167 6.8506966,5.65828371 8.46591484,5.65828371 C10.0811331,5.65828371 11.3902661,6.95181167 11.3902661,8.54991261 C11.3902661,10.1434171 10.0811331,11.4362194 8.46591484,11.4362194" id="Fill-14" fill="#FEFEFE"></path>
                </g>
                <polygon id="Fill-16" fill="#222C3C" points="41.7746034 21.5172414 35.473203 13.0855897 32.7625323 15.5335728 32.7625323 21.5172414 29.6 21.5172414 29.6 5.37931034 32.7625323 5.37931034 32.7625323 11.4311235 39.5157941 5.37931034 44.0812392 5.37931034 37.8749938 10.9776174 45.7454545 21.5172414"></polygon>
                <path d="M55.7688178,14.1735294 L54.2665475,10.2522451 L52.7645156,14.1735294 L55.7688178,14.1735294 Z M58.6136185,21.5172414 L56.9523236,17.1654824 L51.5812482,17.1654824 L49.8968267,21.5172414 L46.6424242,21.5172414 L52.8782408,5.37931034 L55.6322044,5.37931034 L61.8909091,21.5172414 L58.6136185,21.5172414 Z" id="Fill-18" fill="#222C3C"></path>
                <polygon id="Fill-20" fill="#222C3C" points="65.7826572 21.5172414 65.7826572 8.37126334 61.8909091 8.37126334 61.8909091 5.37931034 72.6545455 5.37931034 72.6545455 8.37126334 68.7625644 8.37126334 68.7625644 21.5172414"></polygon>
                <path d="M79.6353303,22.2260068 C77.9521376,21.8737845 76.3139857,21.0292375 74.8810199,19.7388209 L74.4484848,19.3398978 L76.4505381,16.9935516 L76.8828348,17.3924747 C77.9292597,18.3309149 79.0893591,18.9643251 80.226819,19.1993038 L80.2494586,19.1993038 C80.5909587,19.2696008 80.9319821,19.3163016 81.2732439,19.3163016 C81.842093,19.3163016 82.3651863,19.1993038 82.797483,18.9879213 C83.3434542,18.7531884 83.9804603,18.2370217 83.9804603,17.2749854 C83.9804603,16.7590645 83.7302334,16.3601414 83.2069018,16.0317611 C82.5698957,15.632838 81.7055406,15.4214555 81.0911741,15.3042119 C80.8183076,15.2572653 78.4981088,14.7646949 77.428806,14.1546351 C76.7234045,13.7087654 76.1774333,13.1456521 75.7908924,12.4886457 C75.4041132,11.8080431 75.2220433,11.0573893 75.2220433,10.2361928 C75.2220433,9.34469922 75.4951481,8.45295987 76.0182414,7.63176331 C76.5189334,6.9511607 77.2012187,6.38804746 78.0202946,5.98912438 C78.8391323,5.59044709 79.7492431,5.37931034 80.7272727,5.37931034 C81.114052,5.37931034 81.5234708,5.42601114 81.9331279,5.47320352 C83.4344891,5.75463724 84.9129724,6.45883603 86.2098625,7.58506251 L86.6419209,7.96038941 L84.7085013,10.3770325 L84.2762046,10.0017056 C82.797483,8.75798979 81.5234708,8.47655606 80.7046332,8.47655606 C80.1813015,8.47655606 79.7034874,8.59379963 79.2940686,8.78158598 C78.6573008,9.08661589 78.2476436,9.64972913 78.2476436,10.2128424 C78.2476436,10.729009 78.4294752,11.0573893 78.8620102,11.3624192 C79.2940686,11.6674492 79.9539526,11.9021821 81.0003775,12.1366692 C81.1369299,12.1602654 81.3187614,12.2069662 81.5008312,12.2541586 C82.4562212,12.4416991 83.7302334,12.7233787 84.6172281,13.2628957 C85.3907866,13.6851692 85.9825136,14.2718786 86.3919324,14.9522354 C86.8011129,15.632838 87.0060606,16.4304384 87.0060606,17.2749854 C87.0060606,18.3309149 86.7329559,19.2696008 86.1869847,20.0672012 C85.7091705,20.747558 85.0040074,21.3342674 84.0712569,21.8034875 C83.2750589,22.2260068 82.3880642,22.4137931 81.2732439,22.4137931 C80.7501506,22.4137931 80.2041794,22.3432503 79.6353303,22.2260068" id="Fill-22" fill="#222C3C"></path>
                <path d="M97.0292811,14.1735294 L95.5270343,10.2522451 L94.0250259,14.1735294 L97.0292811,14.1735294 Z M99.8742758,21.5172414 L98.2127684,17.1654824 L92.841777,17.1654824 L91.1573819,21.5172414 L87.9030303,21.5172414 L94.1387494,5.37931034 L96.8926699,5.37931034 L103.151515,21.5172414 L99.8742758,21.5172414 Z" id="Fill-24" fill="#222C3C"></path>
                <polygon id="Fill-26" fill="#222C3C" points="116.299335 21.5172414 108.956177 10.9325043 108.956177 21.5172414 105.842424 21.5172414 105.842424 5.37931034 108.863185 5.37931034 116.182974 15.9414909 116.182974 5.37931034 119.29697 5.37931034 119.29697 21.5172414"></polygon>
                <path d="M130.217303,14.1735294 L128.715032,10.2522451 L127.213,14.1735294 L130.217303,14.1735294 Z M133.062103,21.5172414 L131.400808,17.1654824 L126.029733,17.1654824 L124.345312,21.5172414 L121.090909,21.5172414 L127.326964,5.37931034 L130.080689,5.37931034 L136.339394,21.5172414 L133.062103,21.5172414 Z" id="Fill-28" fill="#222C3C"></path>
                <g id="Group-34" transform="translate(137.236364, 1.793103)" fill="#222C3C">
                    <path d="M4.18413897,3.79161482 L4.96526792,3.79161482 C5.44467148,3.79161482 5.56421532,3.80020814 5.61293353,3.80716464 C5.77996739,3.83499065 5.91097434,3.90332804 6.0039074,4.01054 C6.19837084,4.23478486 6.1791292,4.60470704 6.03911552,4.81012842 C5.86389372,5.06751897 5.63831613,5.09125291 4.89403289,5.09125291 C4.81624751,5.09125291 4.73232118,5.09125291 4.6426633,5.09084371 L4.18413897,5.09002529 L4.18413897,3.79161482 Z M5.93185358,6.8029614 C6.03911552,6.96582537 6.16111574,7.14996804 6.30194821,7.3598907 L7.09535906,7.3598907 L6.93528494,7.10209095 C6.32774021,6.12654396 6.20164601,5.92357781 5.74803445,5.65841236 L5.48970512,5.50782457 L5.78569895,5.46526715 C6.13655194,5.41452561 6.40143162,5.29217303 6.57296884,5.10189227 C6.91931847,4.71846629 6.88861371,4.11488752 6.65935155,3.75274025 C6.39938463,3.34271589 6.01373292,3.27356008 5.24693286,3.27356008 L3.52541965,3.27356008 L3.52541965,7.3598907 L4.18413897,7.3598907 L4.18413897,5.56715943 L4.38228698,5.56675023 C5.10855677,5.56879626 5.1425367,5.61094447 5.93185358,6.8029614 L5.93185358,6.8029614 Z" id="Fill-30"></path>
                    <path d="M5.37946014,10.3554225 C2.68721021,10.3554225 0.496997576,8.16568562 0.496997576,5.47523508 C0.496997576,2.78423969 2.68721021,0.594502809 5.37946014,0.594502809 C8.07116497,0.594502809 10.2619227,2.78423969 10.2619227,5.47523508 C10.2619227,8.16568562 8.07116497,10.3554225 5.37946014,10.3554225 M5.37946014,0.219103777 C2.48007213,0.219103777 0.121423533,2.57719813 0.121423533,5.47523508 C0.121423533,8.37272717 2.48007213,10.7302767 5.37946014,10.7302767 C8.27830305,10.7302767 10.6374968,8.37272717 10.6374968,5.47523508 C10.6374968,2.57719813 8.27830305,0.219103777 5.37946014,0.219103777" id="Fill-32"></path>
                </g>
            </g>
        </g>
    </g>
</svg>